<svg xmlns="http://www.w3.org/2000/svg" xmlns:xlink="http://www.w3.org/1999/xlink" id="Uploaded to svgrepo.com" width="800" height="800" version="1.1" viewBox="0 0 32 32" xml:space="preserve"><style type="text/css">.pictogram_een{fill:#f4d6b0}.pictogram_twee{fill:#f8ad89}.pictogram_vier{fill:#e54d2e}.pictogram_vijf{fill:#01a59c}.pictogram_zes{fill:#0c6667}</style><g><path d="M32,29c0,1.65-1.35,3-3,3H3c-1.65,0-3-1.35-3-3V3c0-1.65,1.35-3,3-3h26c1.65,0,3,1.35,3,3V29z" class="pictogram_vijf"/><path d="M3,0C1.35,0,0,1.35,0,3v26c0,1.65,1.35,3,3,3h13V0H3z" class="pictogram_zes"/><path d="M3,26.2C3,27.194,3.806,28,4.8,28h22.4c0.994,0,1.8-0.806,1.8-1.8V10H3V26.2z M23,12h3v3h-3V12z M23,17h3v3h-3V17z M23,22h3v3h-3V22z M17,12h3v3h-3V12z M17,17h3v3h-3V17z M17,22h3v3h-3V22z M11,12h3v3h-3V12z M11,17h3v3h-3V17z M11,22h3v3h-3V22z M5,12h3v3H5V12z M5,17h3v3H5V17z M5,22h3v3H5V22z" class="pictogram_een"/><path d="M29,5.8C29,4.806,28.194,4,27.2,4h-0.05C28.144,4,29,4.806,29,5.8z" class="pictogram_een"/><path d="M26,15h-3v-3h3V15z M20,12h-3v3h3V12z M14,12h-3v3h3V12z M8,12H5v3h3V12z M26,17h-3v3h3V17z M14,17 h-3v3h3V17z M8,17H5v3h3V17z M26,22h-3v3h3V22z M20,22h-3v3h3V22z M14,22h-3v3h3V22z M8,22H5v3h3V22z" class="pictogram_twee"/><path d="M20,20h-3v-3h3V20z M27.15,4H4.8C3.806,4,3,4.806,3,5.8V10h26V5.8C29,4.806,28.144,4,27.15,4z" class="pictogram_vier"/></g></svg>